<svg xmlns="http://www.w3.org/2000/svg" xmlns:xlink="http://www.w3.org/1999/xlink" width="872" height="613.04"><rect width="872" height="613.04" rx="5" ry="5" class="a"/><svg y="0%" x="0%"><circle cx="20" cy="20" r="6" fill="#ff5f58"/><circle cx="40" cy="20" r="6" fill="#ffbd2e"/><circle cx="60" cy="20" r="6" fill="#18c132"/></svg><svg height="521.04" viewBox="0 0 80 52.104" width="800" x="31" xmlns="http://www.w3.org/2000/svg" xmlns:xlink="http://www.w3.org/1999/xlink" y="66"><style>@keyframes i{0%{transform:translateX(0)}86.9%{transform:translateX(-80px)}to{transform:translateX(-160px)}}.a{fill:#282d35}.f{fill:#b9c0cb;white-space:pre}</style><g font-family="Monaco,Consolas,Menlo,'Bitstream Vera Sans Mono','Powerline Symbols',monospace" font-size="1.67"><defs><symbol id="1"><text y="1.67" class="f">autoresearch</text><text x="13.026" y="1.67" class="f">--help</text></symbol><symbol id="2"><text y="1.67" class="f">Autonomous</text><text x="11.022" y="1.67" class="f">Research</text><text x="20.04" y="1.67" class="f">Stack</text><text x="26.052" y="1.67" class="f">—</text><text x="28.056" y="1.67" class="f">Self-Guided</text><text x="40.08" y="1.67" class="f">ML</text><text x="43.086" y="1.67" class="f">Research</text></symbol><symbol id="3"><text y="1.67" class="f">Commands:</text></symbol><symbol id="a"><path fill="transparent" d="M0 0h80v24H0z"/></symbol><symbol id="b"><path fill="#6f7683" d="M0 0h1.102v2.171H0z"/></symbol></defs><path class="a" d="M0 0h80v52.104H0z"/><g style="animation-duration:.001793s;animation-iteration-count:infinite;animation-name:i;animation-timing-function:steps(1,end)"><svg width="240"><svg><use xlink:href="#a"/><use xlink:href="#b" x="-.004"/></svg><svg x="80"><use xlink:href="#a"/><use xlink:href="#b" x="-.004" y="10.83"/><use xlink:href="#1"/><use xlink:href="#2" y="4.342"/><use xlink:href="#3" y="8.684"/></svg><svg x="160"><use xlink:href="#a"/><use xlink:href="#b" x="-.004" y="21.685"/><use xlink:href="#1"/><use xlink:href="#2" y="4.342"/><use xlink:href="#3" y="8.684"/><text x="2.004" y="12.525" class="f">init</text><text x="12.024" y="12.525" class="f">Initialize</text><text x="23.046" y="12.525" class="f">a</text><text x="25.05" y="12.525" class="f">new</text><text x="29.058" y="12.525" class="f">research</text><text x="38.076" y="12.525" class="f">project</text><text x="2.004" y="14.696" class="f">dataset</text><text x="12.024" y="14.696" class="f">Curate</text><text x="19.038" y="14.696" class="f">and</text><text x="23.046" y="14.696" class="f">preprocess</text><text x="34.068" y="14.696" class="f">datasets</text><text x="2.004" y="16.867" class="f">train</text><text x="12.024" y="16.867" class="f">Start</text><text x="18.036" y="16.867" class="f">or</text><text x="21.042" y="16.867" class="f">resume</text><text x="28.056" y="16.867" class="f">model</text><text x="34.068" y="16.867" class="f">training</text><text x="2.004" y="19.038" class="f">evaluate</text><text x="12.024" y="19.038" class="f">Run</text><text x="16.032" y="19.038" class="f">evaluation</text><text x="27.054" y="19.038" class="f">benchmarks</text><text x="2.004" y="21.209" class="f">publish</text><text x="12.024" y="21.209" class="f">Generate</text><text x="21.042" y="21.209" class="f">research</text><text x="30.06" y="21.209" class="f">artifacts</text></svg></svg></g></g></svg></svg>