<svg xmlns="http://www.w3.org/2000/svg" xmlns:xlink="http://www.w3.org/1999/xlink" width="872" height="613.04"><rect width="872" height="613.04" rx="5" ry="5" class="a"/><svg y="0%" x="0%"><circle cx="20" cy="20" r="6" fill="#ff5f58"/><circle cx="40" cy="20" r="6" fill="#ffbd2e"/><circle cx="60" cy="20" r="6" fill="#18c132"/></svg><svg height="521.04" viewBox="0 0 80 52.104" width="800" x="31" xmlns="http://www.w3.org/2000/svg" xmlns:xlink="http://www.w3.org/1999/xlink" y="66"><style>@keyframes i{0%{transform:translateX(0)}87.4%{transform:translateX(-80px)}to{transform:translateX(-160px)}}.a{fill:#282d35}.f{fill:#b9c0cb;white-space:pre}</style><g font-family="Monaco,Consolas,Menlo,'Bitstream Vera Sans Mono','Powerline Symbols',monospace" font-size="1.67"><defs><symbol id="1"><text y="1.67" class="f">candor</text><text x="7.014" y="1.67" class="f">--help</text></symbol><symbol id="2"><text y="1.67" class="f">candor-ai</text><text x="10.02" y="1.67" class="f">0.x.x</text></symbol><symbol id="3"><text y="1.67" class="f">Lawful</text><text x="7.014" y="1.67" class="f">Good</text><text x="12.024" y="1.67" class="f">Rust</text><text x="17.034" y="1.67" class="f">Agentic</text><text x="25.05" y="1.67" class="f">Operating</text><text x="35.07" y="1.67" class="f">System</text></symbol><symbol id="4"><text y="1.67" class="f">USAGE:</text></symbol><symbol id="5"><text x="4.008" y="1.67" class="f">candor</text><text x="11.022" y="1.67" class="f">[FLAGS]</text><text x="19.038" y="1.67" class="f">[OPTIONS]</text><text x="29.058" y="1.67" class="f">[SUBCOMMAND]</text></symbol><symbol id="6"><text y="1.67" class="f">FLAGS:</text></symbol><symbol id="a"><path fill="transparent" d="M0 0h80v24H0z"/></symbol><symbol id="b"><path fill="#6f7683" d="M0 0h1.102v2.171H0z"/></symbol></defs><path class="a" d="M0 0h80v52.104H0z"/><g style="animation-duration:.002163s;animation-iteration-count:infinite;animation-name:i;animation-timing-function:steps(1,end)"><svg width="240"><svg><use xlink:href="#a"/><use xlink:href="#b" x="-.004"/></svg><svg x="80"><use xlink:href="#a"/><use xlink:href="#b" x="-.004" y="19.514"/><use xlink:href="#1"/><use xlink:href="#2" y="4.342"/><use xlink:href="#3" y="6.513"/><use xlink:href="#4" y="10.855"/><use xlink:href="#5" y="13.026"/><use xlink:href="#6" y="17.368"/></svg><svg x="160"><use xlink:href="#a"/><use xlink:href="#b" x="-.004" y="34.711"/><use xlink:href="#1"/><use xlink:href="#2" y="4.342"/><use xlink:href="#3" y="6.513"/><use xlink:href="#4" y="10.855"/><use xlink:href="#5" y="13.026"/><use xlink:href="#6" y="17.368"/><text x="4.008" y="21.209" class="f">-v,</text><text x="8.016" y="21.209" class="f">--verbose</text><text x="21.042" y="21.209" class="f">Verbose</text><text x="29.058" y="21.209" class="f">logging</text><text x="4.008" y="23.38" class="f">-h,</text><text x="8.016" y="23.38" class="f">--help</text><text x="21.042" y="23.38" class="f">Prints</text><text x="28.056" y="23.38" class="f">help</text><text x="33.066" y="23.38" class="f">information</text><text y="27.722" class="f">SUBCOMMANDS:</text><text x="4.008" y="29.893" class="f">agent</text><text x="14.028" y="29.893" class="f">Start</text><text x="20.04" y="29.893" class="f">an</text><text x="23.046" y="29.893" class="f">agent</text><text x="29.058" y="29.893" class="f">session</text><text x="4.008" y="32.064" class="f">config</text><text x="14.028" y="32.064" class="f">Configure</text><text x="24.048" y="32.064" class="f">agent</text><text x="30.06" y="32.064" class="f">settings</text><text x="4.008" y="34.235" class="f">memory</text><text x="14.028" y="34.235" class="f">Inspect</text><text x="22.044" y="34.235" class="f">or</text><text x="25.05" y="34.235" class="f">query</text><text x="31.062" y="34.235" class="f">agent</text><text x="37.074" y="34.235" class="f">memory</text></svg></svg></g></g></svg></svg>