<svg xmlns="http://www.w3.org/2000/svg" xmlns:xlink="http://www.w3.org/1999/xlink" width="872" height="613.04"><rect width="872" height="613.04" rx="5" ry="5" class="a"/><svg y="0%" x="0%"><circle cx="20" cy="20" r="6" fill="#ff5f58"/><circle cx="40" cy="20" r="6" fill="#ffbd2e"/><circle cx="60" cy="20" r="6" fill="#18c132"/></svg><svg height="521.04" viewBox="0 0 80 52.104" width="800" x="31" xmlns="http://www.w3.org/2000/svg" xmlns:xlink="http://www.w3.org/1999/xlink" y="66"><style>@keyframes i{0%{transform:translateX(0)}87.6%{transform:translateX(-80px)}to{transform:translateX(-160px)}}.a{fill:#282d35}.f{fill:#b9c0cb;white-space:pre}</style><g font-family="Monaco,Consolas,Menlo,'Bitstream Vera Sans Mono','Powerline Symbols',monospace" font-size="1.67"><defs><symbol id="1"><text y="1.67" class="f">ironsilo</text><text x="9.018" y="1.67" class="f">--help</text></symbol><symbol id="2"><text y="1.67" class="f">IronSilo</text><text x="9.018" y="1.67" class="f">—</text><text x="11.022" y="1.67" class="f">Local-First</text><text x="23.046" y="1.67" class="f">AI</text><text x="26.052" y="1.67" class="f">Development</text><text x="38.076" y="1.67" class="f">Sandbox</text></symbol><symbol id="3"><text y="1.67" class="f">Commands:</text></symbol><symbol id="4"><text x="2.004" y="1.67" class="f">create</text><text x="12.024" y="1.67" class="f">Create</text><text x="19.038" y="1.67" class="f">a</text><text x="21.042" y="1.67" class="f">new</text><text x="25.05" y="1.67" class="f">sandbox</text><text x="33.066" y="1.67" class="f">environment</text></symbol><symbol id="5"><text x="2.004" y="1.67" class="f">list</text><text x="12.024" y="1.67" class="f">List</text><text x="17.034" y="1.67" class="f">active</text><text x="24.048" y="1.67" class="f">sandboxes</text></symbol><symbol id="6"><text x="2.004" y="1.67" class="f">exec</text><text x="12.024" y="1.67" class="f">Execute</text><text x="20.04" y="1.67" class="f">commands</text><text x="29.058" y="1.67" class="f">inside</text><text x="36.072" y="1.67" class="f">a</text><text x="38.076" y="1.67" class="f">sandbox</text></symbol><symbol id="a"><path fill="transparent" d="M0 0h80v24H0z"/></symbol><symbol id="b"><path fill="#6f7683" d="M0 0h1.102v2.171H0z"/></symbol></defs><path class="a" d="M0 0h80v52.104H0z"/><g style="animation-duration:.002124s;animation-iteration-count:infinite;animation-name:i;animation-timing-function:steps(1,end)"><svg width="240"><svg><use xlink:href="#a"/><use xlink:href="#b" x="-.004"/></svg><svg x="80"><use xlink:href="#a"/><use xlink:href="#b" x="-.004" y="17.343"/><use xlink:href="#1"/><use xlink:href="#2" y="4.342"/><use xlink:href="#3" y="8.684"/><use xlink:href="#4" y="10.855"/><use xlink:href="#5" y="13.026"/><use xlink:href="#6" y="15.197"/></svg><svg x="160"><use xlink:href="#a"/><use xlink:href="#b" x="-.004" y="21.685"/><use xlink:href="#1"/><use xlink:href="#2" y="4.342"/><use xlink:href="#3" y="8.684"/><use xlink:href="#4" y="10.855"/><use xlink:href="#5" y="13.026"/><use xlink:href="#6" y="15.197"/><text x="2.004" y="19.038" class="f">destroy</text><text x="12.024" y="19.038" class="f">Tear</text><text x="17.034" y="19.038" class="f">down</text><text x="22.044" y="19.038" class="f">a</text><text x="24.048" y="19.038" class="f">sandbox</text><text x="2.004" y="21.209" class="f">config</text><text x="12.024" y="21.209" class="f">Configure</text><text x="22.044" y="21.209" class="f">sandbox</text><text x="30.06" y="21.209" class="f">templates</text></svg></svg></g></g></svg></svg>