<svg xmlns="http://www.w3.org/2000/svg" xmlns:xlink="http://www.w3.org/1999/xlink" width="872" height="613.04"><rect width="872" height="613.04" rx="5" ry="5" class="a"/><svg y="0%" x="0%"><circle cx="20" cy="20" r="6" fill="#ff5f58"/><circle cx="40" cy="20" r="6" fill="#ffbd2e"/><circle cx="60" cy="20" r="6" fill="#18c132"/></svg><svg height="521.04" viewBox="0 0 80 52.104" width="800" x="31" xmlns="http://www.w3.org/2000/svg" xmlns:xlink="http://www.w3.org/1999/xlink" y="66"><style>@keyframes i{0%{transform:translateX(0)}86.6%{transform:translateX(-80px)}to{transform:translateX(-160px)}}.a{fill:#282d35}.f{fill:#b9c0cb;white-space:pre}</style><g font-family="Monaco,Consolas,Menlo,'Bitstream Vera Sans Mono','Powerline Symbols',monospace" font-size="1.67"><defs><symbol id="1"><text y="1.67" class="f">ring-fenced-rag</text><text x="16.032" y="1.67" class="f">--help</text></symbol><symbol id="2"><text y="1.67" class="f">Ring-Fenced</text><text x="12.024" y="1.67" class="f">RAG</text><text x="16.032" y="1.67" class="f">—</text><text x="18.036" y="1.67" class="f">Zero-Trust</text><text x="29.058" y="1.67" class="f">Retrieval</text><text x="39.078" y="1.67" class="f">Augmented</text><text x="49.098" y="1.67" class="f">Generation</text></symbol><symbol id="3"><text y="1.67" class="f">Commands:</text></symbol><symbol id="4"><text x="2.004" y="1.67" class="f">index</text><text x="12.024" y="1.67" class="f">Index</text><text x="18.036" y="1.67" class="f">documents</text><text x="28.056" y="1.67" class="f">into</text><text x="33.066" y="1.67" class="f">the</text><text x="37.074" y="1.67" class="f">vector</text><text x="44.088" y="1.67" class="f">store</text></symbol><symbol id="5"><text x="2.004" y="1.67" class="f">query</text><text x="12.024" y="1.67" class="f">Query</text><text x="18.036" y="1.67" class="f">the</text><text x="22.044" y="1.67" class="f">RAG</text><text x="26.052" y="1.67" class="f">system</text><text x="33.066" y="1.67" class="f">with</text><text x="38.076" y="1.67" class="f">RBAC</text><text x="43.086" y="1.67" class="f">enforcement</text></symbol><symbol id="a"><path fill="transparent" d="M0 0h80v24H0z"/></symbol><symbol id="b"><path fill="#6f7683" d="M0 0h1.102v2.171H0z"/></symbol></defs><path class="a" d="M0 0h80v52.104H0z"/><g style="animation-duration:.001818s;animation-iteration-count:infinite;animation-name:i;animation-timing-function:steps(1,end)"><svg width="240"><svg><use xlink:href="#a"/><use xlink:href="#b" x="-.004"/></svg><svg x="80"><use xlink:href="#a"/><use xlink:href="#b" x="-.004" y="15.172"/><use xlink:href="#1"/><use xlink:href="#2" y="4.342"/><use xlink:href="#3" y="8.684"/><use xlink:href="#4" y="10.855"/><use xlink:href="#5" y="13.026"/></svg><svg x="160"><use xlink:href="#a"/><use xlink:href="#b" x="-.004" y="19.514"/><use xlink:href="#1"/><use xlink:href="#2" y="4.342"/><use xlink:href="#3" y="8.684"/><use xlink:href="#4" y="10.855"/><use xlink:href="#5" y="13.026"/><text x="2.004" y="16.867" class="f">serve</text><text x="12.024" y="16.867" class="f">Start</text><text x="18.036" y="16.867" class="f">the</text><text x="22.044" y="16.867" class="f">RAG</text><text x="26.052" y="16.867" class="f">API</text><text x="30.06" y="16.867" class="f">server</text><text x="2.004" y="19.038" class="f">admin</text><text x="12.024" y="19.038" class="f">Admin</text><text x="18.036" y="19.038" class="f">commands</text><text x="27.054" y="19.038" class="f">for</text><text x="31.062" y="19.038" class="f">tenant</text><text x="38.076" y="19.038" class="f">management</text></svg></svg></g></g></svg></svg>