<svg xmlns="http://www.w3.org/2000/svg" xmlns:xlink="http://www.w3.org/1999/xlink" width="872" height="613.04"><rect width="872" height="613.04" rx="5" ry="5" class="a"/><svg y="0%" x="0%"><circle cx="20" cy="20" r="6" fill="#ff5f58"/><circle cx="40" cy="20" r="6" fill="#ffbd2e"/><circle cx="60" cy="20" r="6" fill="#18c132"/></svg><svg height="521.04" viewBox="0 0 80 52.104" width="800" x="31" xmlns="http://www.w3.org/2000/svg" xmlns:xlink="http://www.w3.org/1999/xlink" y="66"><style>@keyframes h{0%{transform:translateX(0)}to{transform:translateX(-80px)}}.a{fill:#282d35}.j{fill:#b9c0cb;white-space:pre}</style><g font-family="Monaco,Consolas,Menlo,'Bitstream Vera Sans Mono','Powerline Symbols',monospace" font-size="1.67"><defs><symbol id="a"><path fill="transparent" d="M0 0h80v24H0z"/></symbol><symbol id="b"><path fill="#6f7683" d="M0 0h1.102v2.171H0z"/></symbol></defs><path class="a" d="M0 0h80v52.104H0z"/><g style="animation-duration:.004074s;animation-iteration-count:infinite;animation-name:h;animation-timing-function:steps(1,end)"><svg width="160"><svg><use xlink:href="#a"/><use xlink:href="#b" x="-.004"/></svg><svg x="80"><use xlink:href="#a"/><use xlink:href="#b" x="-.004" y="30.369"/><text y="1.67" class="j">swe-swarm</text><text x="10.02" y="1.67" class="j">--help</text><text y="6.012" class="j">usage:</text><text x="7.014" y="6.012" class="j">swe-swarm</text><text x="17.034" y="6.012" class="j">[-h]</text><text x="22.044" y="6.012" class="j">[--verbose]</text><text x="34.068" y="6.012" class="j">[--config</text><text x="44.088" y="6.012" class="j">CONFIG]</text><text x="52.104" y="6.012" class="j">[goal]</text><text y="10.354" class="j">SWE</text><text x="4.008" y="10.354" class="j">Swarm</text><text x="10.02" y="10.354" class="j">—</text><text x="12.024" y="10.354" class="j">Multi-Agent</text><text x="24.048" y="10.354" class="j">SWE</text><text x="28.056" y="10.354" class="j">Orchestration</text><text y="14.696" class="j">positional</text><text x="11.022" y="14.696" class="j">arguments:</text><text x="2.004" y="16.867" class="j">goal</text><text x="24.048" y="16.867" class="j">The</text><text x="28.056" y="16.867" class="j">goal</text><text x="33.066" y="16.867" class="j">for</text><text x="37.074" y="16.867" class="j">the</text><text x="41.082" y="16.867" class="j">swarm</text><text x="47.094" y="16.867" class="j">to</text><text x="50.1" y="16.867" class="j">accomplish</text><text y="21.209" class="j">options:</text><text x="2.004" y="23.38" class="j">-h,</text><text x="6.012" y="23.38" class="j">--help</text><text x="24.048" y="23.38" class="j">show</text><text x="29.058" y="23.38" class="j">this</text><text x="34.068" y="23.38" class="j">help</text><text x="39.078" y="23.38" class="j">message</text><text x="47.094" y="23.38" class="j">and</text><text x="51.102" y="23.38" class="j">exit</text><text x="2.004" y="25.551" class="j">--verbose,</text><text x="13.026" y="25.551" class="j">-v</text><text x="24.048" y="25.551" class="j">Enable</text><text x="31.062" y="25.551" class="j">verbose</text><text x="39.078" y="25.551" class="j">logging</text><text x="2.004" y="27.722" class="j">--config</text><text x="11.022" y="27.722" class="j">CONFIG,</text><text x="19.038" y="27.722" class="j">-c</text><text x="22.044" y="27.722" class="j">CONFIG</text><text x="24.048" y="29.893" class="j">Path</text><text x="29.058" y="29.893" class="j">to</text><text x="32.064" y="29.893" class="j">configuration</text><text x="46.092" y="29.893" class="j">file</text></svg></svg></g></g></svg></svg>