<svg xmlns="http://www.w3.org/2000/svg" xmlns:xlink="http://www.w3.org/1999/xlink" width="872" height="613.04"><rect width="872" height="613.04" rx="5" ry="5" class="a"/><svg y="0%" x="0%"><circle cx="20" cy="20" r="6" fill="#ff5f58"/><circle cx="40" cy="20" r="6" fill="#ffbd2e"/><circle cx="60" cy="20" r="6" fill="#18c132"/></svg><svg height="521.04" viewBox="0 0 80 52.104" width="800" x="31" xmlns="http://www.w3.org/2000/svg" xmlns:xlink="http://www.w3.org/1999/xlink" y="66"><style>@keyframes i{0%{transform:translateX(0)}86.7%{transform:translateX(-80px)}to{transform:translateX(-160px)}}.a{fill:#282d35}.f{fill:#b9c0cb;white-space:pre}</style><g font-family="Monaco,Consolas,Menlo,'Bitstream Vera Sans Mono','Powerline Symbols',monospace" font-size="1.67"><defs><symbol id="1"><text y="1.67" class="f">bun</text><text x="4.008" y="1.67" class="f">run</text><text x="8.016" y="1.67" class="f">build</text></symbol><symbol id="2"><text y="1.67" class="f">$</text><text x="2.004" y="1.67" class="f">astro</text><text x="8.016" y="1.67" class="f">build</text></symbol><symbol id="3"><text y="1.67" class="f">13:52:38</text><text x="9.018" y="1.67" class="f">[build]</text><text x="17.034" y="1.67" class="f">output:</text><text x="25.05" y="1.67" class="f">&apos;static&apos;</text></symbol><symbol id="4"><text y="1.67" class="f">13:52:38</text><text x="9.018" y="1.67" class="f">[build]</text><text x="17.034" y="1.67" class="f">mode:</text><text x="23.046" y="1.67" class="f">&apos;static&apos;</text></symbol><symbol id="5"><text y="1.67" class="f">13:52:38</text><text x="9.018" y="1.67" class="f">[build]</text><text x="17.034" y="1.67" class="f">Building</text><text x="26.052" y="1.67" class="f">static</text><text x="33.066" y="1.67" class="f">entrypoints...</text></symbol><symbol id="a"><path fill="transparent" d="M0 0h80v24H0z"/></symbol><symbol id="b"><path fill="#6f7683" d="M0 0h1.102v2.171H0z"/></symbol></defs><path class="a" d="M0 0h80v52.104H0z"/><g style="animation-duration:.001876s;animation-iteration-count:infinite;animation-name:i;animation-timing-function:steps(1,end)"><svg width="240"><svg><use xlink:href="#a"/><use xlink:href="#b" x="-.004"/></svg><svg x="80"><use xlink:href="#a"/><use xlink:href="#b" x="-.004" y="13.001"/><use xlink:href="#1"/><use xlink:href="#2" y="4.342"/><use xlink:href="#3" y="6.513"/><use xlink:href="#4" y="8.684"/><use xlink:href="#5" y="10.855"/></svg><svg x="160"><use xlink:href="#a"/><use xlink:href="#b" x="-.004" y="19.514"/><use xlink:href="#1"/><use xlink:href="#2" y="4.342"/><use xlink:href="#3" y="6.513"/><use xlink:href="#4" y="8.684"/><use xlink:href="#5" y="10.855"/><text y="14.696" class="f">13:52:39</text><text x="9.018" y="14.696" class="f">[vite]</text><text x="16.032" y="14.696" class="f">✓</text><text x="18.036" y="14.696" class="f">built</text><text x="24.048" y="14.696" class="f">in</text><text x="27.054" y="14.696" class="f">401ms</text><text y="16.867" class="f">13:52:39</text><text x="9.018" y="16.867" class="f">[build]</text><text x="17.034" y="16.867" class="f">5</text><text x="19.038" y="16.867" class="f">page(s)</text><text x="27.054" y="16.867" class="f">built</text><text x="33.066" y="16.867" class="f">in</text><text x="36.072" y="16.867" class="f">475ms</text><text y="19.038" class="f">13:52:39</text><text x="9.018" y="19.038" class="f">[build]</text><text x="17.034" y="19.038" class="f">Complete!</text></svg></svg></g></g></svg></svg>