<svg xmlns="http://www.w3.org/2000/svg" xmlns:xlink="http://www.w3.org/1999/xlink" width="872" height="613.04"><rect width="872" height="613.04" rx="5" ry="5" class="a"/><svg y="0%" x="0%"><circle cx="20" cy="20" r="6" fill="#ff5f58"/><circle cx="40" cy="20" r="6" fill="#ffbd2e"/><circle cx="60" cy="20" r="6" fill="#18c132"/></svg><svg height="521.04" viewBox="0 0 80 52.104" width="800" x="31" xmlns="http://www.w3.org/2000/svg" xmlns:xlink="http://www.w3.org/1999/xlink" y="66"><style>@keyframes i{0%{transform:translateX(0)}85.4%{transform:translateX(-80px)}to{transform:translateX(-160px)}}.a{fill:#282d35}.f{fill:#b9c0cb;white-space:pre}</style><g font-family="Monaco,Consolas,Menlo,'Bitstream Vera Sans Mono','Powerline Symbols',monospace" font-size="1.67"><defs><symbol id="1"><text y="1.67" class="f">file-org-wiz</text><text x="13.026" y="1.67" class="f">--help</text></symbol><symbol id="2"><text y="1.67" class="f">File</text><text x="5.01" y="1.67" class="f">Organization</text><text x="18.036" y="1.67" class="f">Wizard</text><text x="25.05" y="1.67" class="f">—</text><text x="27.054" y="1.67" class="f">AI-Powered</text><text x="38.076" y="1.67" class="f">Digital</text><text x="46.092" y="1.67" class="f">Workspace</text></symbol><symbol id="3"><text y="1.67" class="f">Commands:</text></symbol><symbol id="4"><text x="2.004" y="1.67" class="f">scan</text><text x="12.024" y="1.67" class="f">Scan</text><text x="17.034" y="1.67" class="f">directory</text><text x="27.054" y="1.67" class="f">for</text><text x="31.062" y="1.67" class="f">organization</text></symbol><symbol id="5"><text x="2.004" y="1.67" class="f">classify</text><text x="12.024" y="1.67" class="f">AI-classify</text><text x="24.048" y="1.67" class="f">files</text><text x="30.06" y="1.67" class="f">into</text><text x="35.07" y="1.67" class="f">categories</text></symbol><symbol id="6"><text x="2.004" y="1.67" class="f">organize</text><text x="12.024" y="1.67" class="f">Apply</text><text x="18.036" y="1.67" class="f">organization</text><text x="31.062" y="1.67" class="f">rules</text></symbol><symbol id="7"><text x="2.004" y="1.67" class="f">graph</text><text x="12.024" y="1.67" class="f">Show</text><text x="17.034" y="1.67" class="f">knowledge</text><text x="27.054" y="1.67" class="f">graph</text><text x="33.066" y="1.67" class="f">of</text><text x="36.072" y="1.67" class="f">linked</text><text x="43.086" y="1.67" class="f">notes</text></symbol><symbol id="a"><path fill="transparent" d="M0 0h80v24H0z"/></symbol><symbol id="b"><path fill="#6f7683" d="M0 0h1.102v2.171H0z"/></symbol></defs><path class="a" d="M0 0h80v52.104H0z"/><g style="animation-duration:.001951s;animation-iteration-count:infinite;animation-name:i;animation-timing-function:steps(1,end)"><svg width="240"><svg><use xlink:href="#a"/><use xlink:href="#b" x="-.004"/></svg><svg x="80"><use xlink:href="#a"/><use xlink:href="#b" x="-.004" y="19.514"/><use xlink:href="#1"/><use xlink:href="#2" y="4.342"/><use xlink:href="#3" y="8.684"/><use xlink:href="#4" y="10.855"/><use xlink:href="#5" y="13.026"/><use xlink:href="#6" y="15.197"/><use xlink:href="#7" y="17.368"/></svg><svg x="160"><use xlink:href="#a"/><use xlink:href="#b" x="-.004" y="21.685"/><use xlink:href="#1"/><use xlink:href="#2" y="4.342"/><use xlink:href="#3" y="8.684"/><use xlink:href="#4" y="10.855"/><use xlink:href="#5" y="13.026"/><use xlink:href="#6" y="15.197"/><use xlink:href="#7" y="17.368"/><text x="2.004" y="21.209" class="f">status</text><text x="12.024" y="21.209" class="f">Show</text><text x="17.034" y="21.209" class="f">workspace</text><text x="27.054" y="21.209" class="f">organization</text><text x="40.08" y="21.209" class="f">stats</text></svg></svg></g></g></svg></svg>