<svg xmlns="http://www.w3.org/2000/svg" xmlns:xlink="http://www.w3.org/1999/xlink" width="872" height="613.04"><rect width="872" height="613.04" rx="5" ry="5" class="a"/><svg y="0%" x="0%"><circle cx="20" cy="20" r="6" fill="#ff5f58"/><circle cx="40" cy="20" r="6" fill="#ffbd2e"/><circle cx="60" cy="20" r="6" fill="#18c132"/></svg><svg height="521.04" viewBox="0 0 80 52.104" width="800" x="31" xmlns="http://www.w3.org/2000/svg" xmlns:xlink="http://www.w3.org/1999/xlink" y="66"><style>@keyframes i{0%{transform:translateX(0)}85.7%{transform:translateX(-80px)}to{transform:translateX(-160px)}}.a{fill:#282d35}.f{fill:#b9c0cb;white-space:pre}</style><g font-family="Monaco,Consolas,Menlo,'Bitstream Vera Sans Mono','Powerline Symbols',monospace" font-size="1.67"><defs><symbol id="1"><text y="1.67" class="f">half</text><text x="5.01" y="1.67" class="f">--help</text></symbol><symbol id="2"><text y="1.67" class="f">HALF</text><text x="5.01" y="1.67" class="f">—</text><text x="7.014" y="1.67" class="f">Agentic</text><text x="15.03" y="1.67" class="f">Operating</text><text x="25.05" y="1.67" class="f">System</text></symbol><symbol id="3"><text y="1.67" class="f">Commands:</text></symbol><symbol id="4"><text x="2.004" y="1.67" class="f">run</text><text x="12.024" y="1.67" class="f">Execute</text><text x="20.04" y="1.67" class="f">an</text><text x="23.046" y="1.67" class="f">agent</text><text x="29.058" y="1.67" class="f">in</text><text x="32.064" y="1.67" class="f">a</text><text x="34.068" y="1.67" class="f">managed</text><text x="42.084" y="1.67" class="f">context</text></symbol><symbol id="a"><path fill="transparent" d="M0 0h80v24H0z"/></symbol><symbol id="b"><path fill="#6f7683" d="M0 0h1.102v2.171H0z"/></symbol></defs><path class="a" d="M0 0h80v52.104H0z"/><g style="animation-duration:.001753s;animation-iteration-count:infinite;animation-name:i;animation-timing-function:steps(1,end)"><svg width="240"><svg><use xlink:href="#a"/><use xlink:href="#b" x="-.004"/></svg><svg x="80"><use xlink:href="#a"/><use xlink:href="#b" x="-.004" y="13.001"/><use xlink:href="#1"/><use xlink:href="#2" y="4.342"/><use xlink:href="#3" y="8.684"/><use xlink:href="#4" y="10.855"/></svg><svg x="160"><use xlink:href="#a"/><use xlink:href="#b" x="-.004" y="21.685"/><use xlink:href="#1"/><use xlink:href="#2" y="4.342"/><use xlink:href="#3" y="8.684"/><use xlink:href="#4" y="10.855"/><text x="2.004" y="14.696" class="f">ps</text><text x="12.024" y="14.696" class="f">List</text><text x="17.034" y="14.696" class="f">running</text><text x="25.05" y="14.696" class="f">agent</text><text x="31.062" y="14.696" class="f">processes</text><text x="2.004" y="16.867" class="f">kill</text><text x="12.024" y="16.867" class="f">Terminate</text><text x="22.044" y="16.867" class="f">an</text><text x="25.05" y="16.867" class="f">agent</text><text x="31.062" y="16.867" class="f">process</text><text x="2.004" y="19.038" class="f">logs</text><text x="12.024" y="19.038" class="f">Stream</text><text x="19.038" y="19.038" class="f">agent</text><text x="25.05" y="19.038" class="f">logs</text><text x="2.004" y="21.209" class="f">schedule</text><text x="12.024" y="21.209" class="f">Schedule</text><text x="21.042" y="21.209" class="f">recurring</text><text x="31.062" y="21.209" class="f">agent</text><text x="37.074" y="21.209" class="f">tasks</text></svg></svg></g></g></svg></svg>