<svg xmlns="http://www.w3.org/2000/svg" xmlns:xlink="http://www.w3.org/1999/xlink" width="872" height="613.04"><rect width="872" height="613.04" rx="5" ry="5" class="a"/><svg y="0%" x="0%"><circle cx="20" cy="20" r="6" fill="#ff5f58"/><circle cx="40" cy="20" r="6" fill="#ffbd2e"/><circle cx="60" cy="20" r="6" fill="#18c132"/></svg><svg height="521.04" viewBox="0 0 80 52.104" width="800" x="31" xmlns="http://www.w3.org/2000/svg" xmlns:xlink="http://www.w3.org/1999/xlink" y="66"><style>@keyframes h{0%{transform:translateX(0)}to{transform:translateX(-80px)}}.a{fill:#282d35}.j{fill:#b9c0cb;white-space:pre}</style><g font-family="Monaco,Consolas,Menlo,'Bitstream Vera Sans Mono','Powerline Symbols',monospace" font-size="1.67"><defs><symbol id="a"><path fill="transparent" d="M0 0h80v24H0z"/></symbol><symbol id="b"><path fill="#6f7683" d="M0 0h1.102v2.171H0z"/></symbol></defs><path class="a" d="M0 0h80v52.104H0z"/><g style="animation-duration:.001899s;animation-iteration-count:infinite;animation-name:h;animation-timing-function:steps(1,end)"><svg width="160"><svg><use xlink:href="#a"/><use xlink:href="#b" x="-.004"/></svg><svg x="80"><use xlink:href="#a"/><use xlink:href="#b" x="-.004" y="34.711"/><text y="1.67" class="j">no-slop</text><text x="8.016" y="1.67" class="j">--help</text><text y="6.012" class="j">Usage:</text><text x="7.014" y="6.012" class="j">no-slop</text><text x="15.03" y="6.012" class="j">[OPTIONS]</text><text x="25.05" y="6.012" class="j">COMMAND</text><text x="33.066" y="6.012" class="j">[ARGS]...</text><text x="2.004" y="10.354" class="j">No-Slop</text><text x="10.02" y="10.354" class="j">Harness</text><text x="18.036" y="10.354" class="j">—</text><text x="20.04" y="10.354" class="j">deterministic</text><text x="34.068" y="10.354" class="j">LLM</text><text x="38.076" y="10.354" class="j">orchestration.</text><text y="14.696" class="j">Options:</text><text x="2.004" y="16.867" class="j">-v,</text><text x="6.012" y="16.867" class="j">--verbose</text><text x="17.034" y="16.867" class="j">Enable</text><text x="24.048" y="16.867" class="j">verbose</text><text x="32.064" y="16.867" class="j">logging.</text><text x="2.004" y="19.038" class="j">--help</text><text x="17.034" y="19.038" class="j">Show</text><text x="22.044" y="19.038" class="j">this</text><text x="27.054" y="19.038" class="j">message</text><text x="35.07" y="19.038" class="j">and</text><text x="39.078" y="19.038" class="j">exit.</text><text y="23.38" class="j">Commands:</text><text x="2.004" y="25.551" class="j">init</text><text x="11.022" y="25.551" class="j">Initialize</text><text x="22.044" y="25.551" class="j">a</text><text x="24.048" y="25.551" class="j">new</text><text x="28.056" y="25.551" class="j">CIV</text><text x="32.064" y="25.551" class="j">pipeline</text><text x="41.082" y="25.551" class="j">session.</text><text x="2.004" y="27.722" class="j">list</text><text x="11.022" y="27.722" class="j">List</text><text x="16.032" y="27.722" class="j">all</text><text x="20.04" y="27.722" class="j">tasks</text><text x="26.052" y="27.722" class="j">in</text><text x="29.058" y="27.722" class="j">the</text><text x="33.066" y="27.722" class="j">current</text><text x="41.082" y="27.722" class="j">pipeline.</text><text x="2.004" y="29.893" class="j">status</text><text x="11.022" y="29.893" class="j">Show</text><text x="16.032" y="29.893" class="j">the</text><text x="20.04" y="29.893" class="j">current</text><text x="28.056" y="29.893" class="j">pipeline</text><text x="37.074" y="29.893" class="j">status.</text><text x="2.004" y="32.064" class="j">verify</text><text x="11.022" y="32.064" class="j">Verify</text><text x="18.036" y="32.064" class="j">a</text><text x="20.04" y="32.064" class="j">completed</text><text x="30.06" y="32.064" class="j">task.</text><text x="2.004" y="34.235" class="j">report</text><text x="11.022" y="34.235" class="j">Report</text><text x="18.036" y="34.235" class="j">the</text><text x="22.044" y="34.235" class="j">result</text><text x="29.058" y="34.235" class="j">of</text><text x="32.064" y="34.235" class="j">an</text><text x="35.07" y="34.235" class="j">implemented</text><text x="47.094" y="34.235" class="j">task.</text></svg></svg></g></g></svg></svg>